<mxfile host="app.diagrams.net" modified="2022-09-28T06:27:58.734Z" agent="5.0 (Windows NT 10.0; Win64; x64) AppleWebKit/537.36 (KHTML, like Gecko) Chrome/103.0.5060.114 Safari/537.36" etag="taFH5vVQ592e0sU6fPA1" version="20.3.7" type="github">
  <diagram id="6a731a19-8d31-9384-78a2-239565b7b9f0" name="Page-1">
    <mxGraphModel dx="1303" dy="727" grid="1" gridSize="10" guides="1" tooltips="1" connect="1" arrows="1" fold="1" page="1" pageScale="1" pageWidth="1169" pageHeight="827" background="none" math="0" shadow="0">
      <root>
        <mxCell id="0" />
        <mxCell id="1" parent="0" />
        <mxCell id="jGhrvIS6w2s_NV2GUrLX-2342" value="" style="rounded=1;whiteSpace=wrap;html=1;strokeColor=#000000;fontSize=20;fontColor=#000000;arcSize=2;dashed=1;" vertex="1" parent="1">
          <mxGeometry x="950" y="70" width="190" height="322" as="geometry" />
        </mxCell>
        <mxCell id="jGhrvIS6w2s_NV2GUrLX-2338" value="" style="rounded=1;whiteSpace=wrap;html=1;strokeColor=#000000;fontSize=20;fontColor=#000000;arcSize=2;" vertex="1" parent="1">
          <mxGeometry x="533" y="460" width="481" height="300" as="geometry" />
        </mxCell>
        <mxCell id="jGhrvIS6w2s_NV2GUrLX-2302" style="edgeStyle=orthogonalEdgeStyle;rounded=0;orthogonalLoop=1;jettySize=auto;html=1;exitX=0;exitY=0.5;exitDx=0;exitDy=0;entryX=1;entryY=0.5;entryDx=0;entryDy=0;entryPerimeter=0;fontSize=20;endArrow=none;endFill=0;strokeWidth=3;" edge="1" parent="1" source="jGhrvIS6w2s_NV2GUrLX-2291" target="jGhrvIS6w2s_NV2GUrLX-2293">
          <mxGeometry relative="1" as="geometry" />
        </mxCell>
        <mxCell id="jGhrvIS6w2s_NV2GUrLX-2291" value="" style="shape=ext;double=1;rounded=1;whiteSpace=wrap;html=1;fontSize=20;arcSize=5;" vertex="1" parent="1">
          <mxGeometry x="650" y="490" width="340" height="100" as="geometry" />
        </mxCell>
        <mxCell id="jGhrvIS6w2s_NV2GUrLX-2276" value="" style="rounded=1;whiteSpace=wrap;html=1;arcSize=3;" vertex="1" parent="1">
          <mxGeometry x="50" y="320" width="290" height="220" as="geometry" />
        </mxCell>
        <mxCell id="jGhrvIS6w2s_NV2GUrLX-2258" value="" style="shape=mxgraph.cisco.buildings.mdu;sketch=0;html=1;pointerEvents=1;dashed=0;fillColor=#036897;strokeColor=#ffffff;strokeWidth=2;verticalLabelPosition=bottom;verticalAlign=top;align=center;outlineConnect=0;" vertex="1" parent="1">
          <mxGeometry x="220" y="390" width="86" height="126.5" as="geometry" />
        </mxCell>
        <mxCell id="jGhrvIS6w2s_NV2GUrLX-2259" value="" style="shape=mxgraph.cisco.computers_and_peripherals.ibm_mini_as400;sketch=0;html=1;pointerEvents=1;dashed=0;fillColor=#036897;strokeColor=#ffffff;strokeWidth=2;verticalLabelPosition=bottom;verticalAlign=top;align=center;outlineConnect=0;" vertex="1" parent="1">
          <mxGeometry x="680" y="510.5" width="43" height="62" as="geometry" />
        </mxCell>
        <mxCell id="jGhrvIS6w2s_NV2GUrLX-2260" value="" style="shape=mxgraph.cisco.computers_and_peripherals.ibm_mini_as400;sketch=0;html=1;pointerEvents=1;dashed=0;fillColor=#036897;strokeColor=#ffffff;strokeWidth=2;verticalLabelPosition=bottom;verticalAlign=top;align=center;outlineConnect=0;" vertex="1" parent="1">
          <mxGeometry x="740" y="510.5" width="43" height="62" as="geometry" />
        </mxCell>
        <mxCell id="jGhrvIS6w2s_NV2GUrLX-2261" value="" style="shape=mxgraph.cisco.computers_and_peripherals.ibm_mini_as400;sketch=0;html=1;pointerEvents=1;dashed=0;fillColor=#036897;strokeColor=#ffffff;strokeWidth=2;verticalLabelPosition=bottom;verticalAlign=top;align=center;outlineConnect=0;" vertex="1" parent="1">
          <mxGeometry x="800" y="510.5" width="43" height="62" as="geometry" />
        </mxCell>
        <mxCell id="jGhrvIS6w2s_NV2GUrLX-2263" value="" style="shape=mxgraph.cisco.computers_and_peripherals.ibm_mini_as400;sketch=0;html=1;pointerEvents=1;dashed=0;fillColor=#036897;strokeColor=#ffffff;strokeWidth=2;verticalLabelPosition=bottom;verticalAlign=top;align=center;outlineConnect=0;" vertex="1" parent="1">
          <mxGeometry x="920" y="510.5" width="43" height="62" as="geometry" />
        </mxCell>
        <mxCell id="jGhrvIS6w2s_NV2GUrLX-2265" value="" style="shape=mxgraph.cisco.people.standing_man;sketch=0;html=1;pointerEvents=1;dashed=0;fillColor=#036897;strokeColor=#ffffff;strokeWidth=2;verticalLabelPosition=bottom;verticalAlign=top;align=center;outlineConnect=0;" vertex="1" parent="1">
          <mxGeometry x="182" y="466.5" width="22" height="62" as="geometry" />
        </mxCell>
        <mxCell id="jGhrvIS6w2s_NV2GUrLX-2266" value="" style="shape=mxgraph.cisco.people.standing_woman;sketch=0;html=1;pointerEvents=1;dashed=0;fillColor=#036897;strokeColor=#ffffff;strokeWidth=2;verticalLabelPosition=bottom;verticalAlign=top;align=center;outlineConnect=0;" vertex="1" parent="1">
          <mxGeometry x="170" y="436.5" width="22" height="62" as="geometry" />
        </mxCell>
        <mxCell id="jGhrvIS6w2s_NV2GUrLX-2310" style="edgeStyle=orthogonalEdgeStyle;rounded=0;orthogonalLoop=1;jettySize=auto;html=1;exitX=1;exitY=0.5;exitDx=0;exitDy=0;exitPerimeter=0;entryX=0.04;entryY=0.5;entryDx=0;entryDy=0;entryPerimeter=0;strokeWidth=3;fontSize=20;endArrow=none;endFill=0;" edge="1" parent="1" source="jGhrvIS6w2s_NV2GUrLX-2269" target="jGhrvIS6w2s_NV2GUrLX-2270">
          <mxGeometry relative="1" as="geometry" />
        </mxCell>
        <mxCell id="jGhrvIS6w2s_NV2GUrLX-2269" value="接入路由器" style="shape=mxgraph.cisco.routers.atm_router;sketch=0;html=1;pointerEvents=1;dashed=0;fillColor=#036897;strokeColor=#ffffff;strokeWidth=2;verticalLabelPosition=bottom;verticalAlign=top;align=center;outlineConnect=0;" vertex="1" parent="1">
          <mxGeometry x="370" y="240.5" width="78" height="53" as="geometry" />
        </mxCell>
        <mxCell id="jGhrvIS6w2s_NV2GUrLX-2321" style="edgeStyle=orthogonalEdgeStyle;rounded=0;orthogonalLoop=1;jettySize=auto;html=1;exitX=0.98;exitY=0.5;exitDx=0;exitDy=0;exitPerimeter=0;entryX=0;entryY=0.5;entryDx=0;entryDy=0;entryPerimeter=0;strokeWidth=3;fontSize=20;endArrow=none;endFill=0;" edge="1" parent="1" source="jGhrvIS6w2s_NV2GUrLX-2270" target="jGhrvIS6w2s_NV2GUrLX-2320">
          <mxGeometry relative="1" as="geometry" />
        </mxCell>
        <mxCell id="jGhrvIS6w2s_NV2GUrLX-2270" value="" style="shape=mxgraph.cisco.storage.cloud;sketch=0;html=1;pointerEvents=1;dashed=0;fillColor=#036897;strokeColor=#ffffff;strokeWidth=2;verticalLabelPosition=bottom;verticalAlign=top;align=center;outlineConnect=0;" vertex="1" parent="1">
          <mxGeometry x="470" y="179.5" width="320" height="175" as="geometry" />
        </mxCell>
        <mxCell id="jGhrvIS6w2s_NV2GUrLX-2274" value="" style="shape=mxgraph.signs.transportation.truck_6;html=1;pointerEvents=1;fillColor=#000000;strokeColor=none;verticalLabelPosition=bottom;verticalAlign=top;align=center;" vertex="1" parent="1">
          <mxGeometry x="80" y="382" width="79" height="98" as="geometry" />
        </mxCell>
        <mxCell id="jGhrvIS6w2s_NV2GUrLX-2277" value="场景数据" style="text;html=1;strokeColor=none;fillColor=none;align=center;verticalAlign=middle;whiteSpace=wrap;rounded=0;" vertex="1" parent="1">
          <mxGeometry x="165" y="330" width="60" height="30" as="geometry" />
        </mxCell>
        <mxCell id="jGhrvIS6w2s_NV2GUrLX-2307" style="edgeStyle=orthogonalEdgeStyle;rounded=0;orthogonalLoop=1;jettySize=auto;html=1;strokeWidth=3;fontSize=20;endArrow=none;endFill=0;entryX=0.5;entryY=1;entryDx=0;entryDy=0;entryPerimeter=0;" edge="1" parent="1" source="jGhrvIS6w2s_NV2GUrLX-2317" target="jGhrvIS6w2s_NV2GUrLX-2269">
          <mxGeometry relative="1" as="geometry">
            <mxPoint x="370" y="309.9999999999999" as="targetPoint" />
            <mxPoint x="409" y="400" as="sourcePoint" />
            <Array as="points">
              <mxPoint x="377" y="366" />
              <mxPoint x="409" y="366" />
            </Array>
          </mxGeometry>
        </mxCell>
        <mxCell id="jGhrvIS6w2s_NV2GUrLX-2319" value="LAN" style="edgeStyle=orthogonalEdgeStyle;rounded=0;orthogonalLoop=1;jettySize=auto;html=1;exitX=0;exitY=1;exitDx=0;exitDy=0;exitPerimeter=0;entryX=0;entryY=0.5;entryDx=0;entryDy=0;entryPerimeter=0;strokeWidth=3;fontSize=12;endArrow=none;endFill=0;" edge="1" parent="1" source="jGhrvIS6w2s_NV2GUrLX-2282" target="jGhrvIS6w2s_NV2GUrLX-2317">
          <mxGeometry relative="1" as="geometry" />
        </mxCell>
        <mxCell id="jGhrvIS6w2s_NV2GUrLX-2282" value="" style="fontColor=#0066CC;verticalAlign=top;verticalLabelPosition=bottom;labelPosition=center;align=center;html=1;outlineConnect=0;fillColor=#CCCCCC;strokeColor=#6881B3;gradientColor=none;gradientDirection=north;strokeWidth=2;shape=mxgraph.networks.security_camera;flipH=1;" vertex="1" parent="1">
          <mxGeometry x="280" y="331" width="56" height="35" as="geometry" />
        </mxCell>
        <mxCell id="jGhrvIS6w2s_NV2GUrLX-2283" value="" style="rounded=1;whiteSpace=wrap;html=1;arcSize=3;" vertex="1" parent="1">
          <mxGeometry x="48" y="30" width="290" height="220" as="geometry" />
        </mxCell>
        <mxCell id="jGhrvIS6w2s_NV2GUrLX-2284" value="" style="shape=mxgraph.cisco.buildings.mdu;sketch=0;html=1;pointerEvents=1;dashed=0;fillColor=#036897;strokeColor=#ffffff;strokeWidth=2;verticalLabelPosition=bottom;verticalAlign=top;align=center;outlineConnect=0;" vertex="1" parent="1">
          <mxGeometry x="218" y="100" width="86" height="126.5" as="geometry" />
        </mxCell>
        <mxCell id="jGhrvIS6w2s_NV2GUrLX-2285" value="" style="shape=mxgraph.cisco.people.standing_man;sketch=0;html=1;pointerEvents=1;dashed=0;fillColor=#036897;strokeColor=#ffffff;strokeWidth=2;verticalLabelPosition=bottom;verticalAlign=top;align=center;outlineConnect=0;" vertex="1" parent="1">
          <mxGeometry x="180" y="176.5" width="22" height="62" as="geometry" />
        </mxCell>
        <mxCell id="jGhrvIS6w2s_NV2GUrLX-2286" value="" style="shape=mxgraph.cisco.people.standing_woman;sketch=0;html=1;pointerEvents=1;dashed=0;fillColor=#036897;strokeColor=#ffffff;strokeWidth=2;verticalLabelPosition=bottom;verticalAlign=top;align=center;outlineConnect=0;" vertex="1" parent="1">
          <mxGeometry x="168" y="146.5" width="22" height="62" as="geometry" />
        </mxCell>
        <mxCell id="jGhrvIS6w2s_NV2GUrLX-2287" value="" style="shape=mxgraph.signs.transportation.truck_6;html=1;pointerEvents=1;fillColor=#000000;strokeColor=none;verticalLabelPosition=bottom;verticalAlign=top;align=center;" vertex="1" parent="1">
          <mxGeometry x="78" y="92" width="79" height="98" as="geometry" />
        </mxCell>
        <mxCell id="jGhrvIS6w2s_NV2GUrLX-2288" value="场景数据" style="text;html=1;strokeColor=none;fillColor=none;align=center;verticalAlign=middle;whiteSpace=wrap;rounded=0;" vertex="1" parent="1">
          <mxGeometry x="163" y="40" width="60" height="30" as="geometry" />
        </mxCell>
        <mxCell id="jGhrvIS6w2s_NV2GUrLX-2309" style="edgeStyle=orthogonalEdgeStyle;rounded=0;orthogonalLoop=1;jettySize=auto;html=1;entryX=0.5;entryY=0;entryDx=0;entryDy=0;entryPerimeter=0;strokeWidth=3;fontSize=20;endArrow=none;endFill=0;exitX=0.5;exitY=1;exitDx=0;exitDy=0;exitPerimeter=0;" edge="1" parent="1" source="jGhrvIS6w2s_NV2GUrLX-2315" target="jGhrvIS6w2s_NV2GUrLX-2269">
          <mxGeometry relative="1" as="geometry">
            <mxPoint x="409" y="150" as="sourcePoint" />
          </mxGeometry>
        </mxCell>
        <mxCell id="jGhrvIS6w2s_NV2GUrLX-2336" value="&lt;font color=&quot;#000000&quot; style=&quot;font-size: 12px;&quot;&gt;4g&lt;br style=&quot;font-size: 12px;&quot;&gt;/&lt;br style=&quot;font-size: 12px;&quot;&gt;5g&lt;br style=&quot;font-size: 12px;&quot;&gt;&lt;/font&gt;" style="edgeStyle=orthogonalEdgeStyle;rounded=0;orthogonalLoop=1;jettySize=auto;html=1;exitX=0;exitY=1;exitDx=0;exitDy=0;exitPerimeter=0;entryX=0.245;entryY=0.5;entryDx=0;entryDy=0;entryPerimeter=0;strokeWidth=3;fontSize=12;fontColor=#FFFFFF;endArrow=none;endFill=0;" edge="1" parent="1" source="jGhrvIS6w2s_NV2GUrLX-2289" target="jGhrvIS6w2s_NV2GUrLX-2312">
          <mxGeometry relative="1" as="geometry">
            <Array as="points">
              <mxPoint x="334" y="80" />
            </Array>
          </mxGeometry>
        </mxCell>
        <mxCell id="jGhrvIS6w2s_NV2GUrLX-2289" value="" style="fontColor=#0066CC;verticalAlign=top;verticalLabelPosition=bottom;labelPosition=center;align=center;html=1;outlineConnect=0;fillColor=#CCCCCC;strokeColor=#6881B3;gradientColor=none;gradientDirection=north;strokeWidth=2;shape=mxgraph.networks.security_camera;flipH=1;" vertex="1" parent="1">
          <mxGeometry x="278" y="41" width="56" height="35" as="geometry" />
        </mxCell>
        <mxCell id="jGhrvIS6w2s_NV2GUrLX-2290" value="&lt;b style=&quot;font-size: 20px;&quot;&gt;……&lt;/b&gt;" style="text;html=1;strokeColor=none;fillColor=none;align=center;verticalAlign=middle;whiteSpace=wrap;rounded=0;rotation=90;fontSize=20;" vertex="1" parent="1">
          <mxGeometry x="158" y="270" width="60" height="30" as="geometry" />
        </mxCell>
        <mxCell id="jGhrvIS6w2s_NV2GUrLX-2306" style="edgeStyle=orthogonalEdgeStyle;rounded=0;orthogonalLoop=1;jettySize=auto;html=1;exitX=1;exitY=0.5;exitDx=0;exitDy=0;exitPerimeter=0;strokeWidth=3;fontSize=20;endArrow=none;endFill=0;entryX=0.5;entryY=1;entryDx=0;entryDy=0;entryPerimeter=0;" edge="1" parent="1" source="jGhrvIS6w2s_NV2GUrLX-2292" target="jGhrvIS6w2s_NV2GUrLX-2308">
          <mxGeometry relative="1" as="geometry" />
        </mxCell>
        <mxCell id="jGhrvIS6w2s_NV2GUrLX-2292" value="Firewall" style="shape=mxgraph.cisco.security.firewall;sketch=0;html=1;pointerEvents=1;dashed=0;fillColor=#036897;strokeColor=#ffffff;strokeWidth=2;verticalLabelPosition=bottom;verticalAlign=top;align=center;outlineConnect=0;fontSize=12;" vertex="1" parent="1">
          <mxGeometry x="470" y="450" width="29" height="67" as="geometry" />
        </mxCell>
        <mxCell id="jGhrvIS6w2s_NV2GUrLX-2305" style="edgeStyle=orthogonalEdgeStyle;rounded=0;orthogonalLoop=1;jettySize=auto;html=1;exitX=0;exitY=0.5;exitDx=0;exitDy=0;exitPerimeter=0;entryX=1;entryY=0.5;entryDx=0;entryDy=0;entryPerimeter=0;strokeWidth=3;fontSize=20;endArrow=none;endFill=0;" edge="1" parent="1" source="jGhrvIS6w2s_NV2GUrLX-2293" target="jGhrvIS6w2s_NV2GUrLX-2292">
          <mxGeometry relative="1" as="geometry" />
        </mxCell>
        <mxCell id="jGhrvIS6w2s_NV2GUrLX-2293" value="" style="shape=mxgraph.cisco.switches.atm_switch;sketch=0;html=1;pointerEvents=1;dashed=0;fillColor=#036897;strokeColor=#ffffff;strokeWidth=2;verticalLabelPosition=bottom;verticalAlign=top;align=center;outlineConnect=0;fontSize=20;" vertex="1" parent="1">
          <mxGeometry x="558" y="512" width="54" height="56" as="geometry" />
        </mxCell>
        <mxCell id="jGhrvIS6w2s_NV2GUrLX-2303" style="edgeStyle=orthogonalEdgeStyle;rounded=0;orthogonalLoop=1;jettySize=auto;html=1;exitX=0.5;exitY=0;exitDx=0;exitDy=0;exitPerimeter=0;fontSize=20;horizontal=1;endArrow=none;endFill=0;strokeWidth=3;" edge="1" parent="1" source="jGhrvIS6w2s_NV2GUrLX-2294" target="jGhrvIS6w2s_NV2GUrLX-2293">
          <mxGeometry relative="1" as="geometry" />
        </mxCell>
        <mxCell id="jGhrvIS6w2s_NV2GUrLX-2294" value="" style="shape=mxgraph.cisco.switches.atm_switch;sketch=0;html=1;pointerEvents=1;dashed=0;fillColor=#036897;strokeColor=#ffffff;strokeWidth=2;verticalLabelPosition=bottom;verticalAlign=top;align=center;outlineConnect=0;fontSize=20;" vertex="1" parent="1">
          <mxGeometry x="558" y="661" width="54" height="56" as="geometry" />
        </mxCell>
        <mxCell id="jGhrvIS6w2s_NV2GUrLX-2301" style="edgeStyle=orthogonalEdgeStyle;rounded=0;orthogonalLoop=1;jettySize=auto;html=1;exitX=0;exitY=0.5;exitDx=0;exitDy=0;fontSize=20;endArrow=none;endFill=0;strokeWidth=3;" edge="1" parent="1" source="jGhrvIS6w2s_NV2GUrLX-2295" target="jGhrvIS6w2s_NV2GUrLX-2294">
          <mxGeometry relative="1" as="geometry" />
        </mxCell>
        <mxCell id="jGhrvIS6w2s_NV2GUrLX-2295" value="" style="shape=ext;double=1;rounded=1;whiteSpace=wrap;html=1;fontSize=20;arcSize=5;" vertex="1" parent="1">
          <mxGeometry x="650" y="639" width="340" height="100" as="geometry" />
        </mxCell>
        <mxCell id="jGhrvIS6w2s_NV2GUrLX-2296" value="" style="shape=mxgraph.cisco.computers_and_peripherals.ibm_mini_as400;sketch=0;html=1;pointerEvents=1;dashed=0;fillColor=#036897;strokeColor=#ffffff;strokeWidth=2;verticalLabelPosition=bottom;verticalAlign=top;align=center;outlineConnect=0;" vertex="1" parent="1">
          <mxGeometry x="680" y="659.5" width="43" height="62" as="geometry" />
        </mxCell>
        <mxCell id="jGhrvIS6w2s_NV2GUrLX-2297" value="" style="shape=mxgraph.cisco.computers_and_peripherals.ibm_mini_as400;sketch=0;html=1;pointerEvents=1;dashed=0;fillColor=#036897;strokeColor=#ffffff;strokeWidth=2;verticalLabelPosition=bottom;verticalAlign=top;align=center;outlineConnect=0;" vertex="1" parent="1">
          <mxGeometry x="740" y="659.5" width="43" height="62" as="geometry" />
        </mxCell>
        <mxCell id="jGhrvIS6w2s_NV2GUrLX-2298" value="" style="shape=mxgraph.cisco.computers_and_peripherals.ibm_mini_as400;sketch=0;html=1;pointerEvents=1;dashed=0;fillColor=#036897;strokeColor=#ffffff;strokeWidth=2;verticalLabelPosition=bottom;verticalAlign=top;align=center;outlineConnect=0;" vertex="1" parent="1">
          <mxGeometry x="800" y="659.5" width="43" height="62" as="geometry" />
        </mxCell>
        <mxCell id="jGhrvIS6w2s_NV2GUrLX-2299" value="" style="shape=mxgraph.cisco.computers_and_peripherals.ibm_mini_as400;sketch=0;html=1;pointerEvents=1;dashed=0;fillColor=#036897;strokeColor=#ffffff;strokeWidth=2;verticalLabelPosition=bottom;verticalAlign=top;align=center;outlineConnect=0;" vertex="1" parent="1">
          <mxGeometry x="920" y="659.5" width="43" height="62" as="geometry" />
        </mxCell>
        <mxCell id="jGhrvIS6w2s_NV2GUrLX-2300" value="&lt;b style=&quot;font-size: 20px;&quot;&gt;……&lt;/b&gt;" style="text;html=1;strokeColor=none;fillColor=none;align=center;verticalAlign=middle;whiteSpace=wrap;rounded=0;rotation=90;fontSize=20;" vertex="1" parent="1">
          <mxGeometry x="800" y="600" width="60" height="30" as="geometry" />
        </mxCell>
        <mxCell id="jGhrvIS6w2s_NV2GUrLX-2330" style="edgeStyle=orthogonalEdgeStyle;rounded=0;orthogonalLoop=1;jettySize=auto;html=1;exitX=0.5;exitY=0;exitDx=0;exitDy=0;exitPerimeter=0;entryX=0.5;entryY=0.99;entryDx=0;entryDy=0;entryPerimeter=0;strokeWidth=3;fontSize=20;fontColor=#FFFFFF;endArrow=none;endFill=0;" edge="1" parent="1" source="jGhrvIS6w2s_NV2GUrLX-2308" target="jGhrvIS6w2s_NV2GUrLX-2270">
          <mxGeometry relative="1" as="geometry" />
        </mxCell>
        <mxCell id="jGhrvIS6w2s_NV2GUrLX-2308" value="接入路由器" style="shape=mxgraph.cisco.routers.atm_router;sketch=0;html=1;pointerEvents=1;dashed=0;fillColor=#036897;strokeColor=#ffffff;strokeWidth=2;verticalLabelPosition=bottom;verticalAlign=top;align=center;outlineConnect=0;" vertex="1" parent="1">
          <mxGeometry x="556" y="390" width="78" height="53" as="geometry" />
        </mxCell>
        <mxCell id="jGhrvIS6w2s_NV2GUrLX-2316" value="" style="edgeStyle=orthogonalEdgeStyle;rounded=0;orthogonalLoop=1;jettySize=auto;html=1;strokeWidth=3;fontSize=20;endArrow=none;endFill=0;entryX=0.5;entryY=0;entryDx=0;entryDy=0;entryPerimeter=0;" edge="1" parent="1" source="jGhrvIS6w2s_NV2GUrLX-2312" target="jGhrvIS6w2s_NV2GUrLX-2315">
          <mxGeometry relative="1" as="geometry" />
        </mxCell>
        <mxCell id="jGhrvIS6w2s_NV2GUrLX-2312" value="基站" style="shape=mxgraph.cisco.wireless.radio_tower;sketch=0;html=1;pointerEvents=1;dashed=0;fillColor=#036897;strokeColor=#000000;strokeWidth=2;verticalLabelPosition=bottom;verticalAlign=top;align=center;outlineConnect=0;fontSize=12;" vertex="1" parent="1">
          <mxGeometry x="403" y="30" width="37" height="101" as="geometry" />
        </mxCell>
        <mxCell id="jGhrvIS6w2s_NV2GUrLX-2315" value="" style="shape=mxgraph.cisco.switches.atm_switch;sketch=0;html=1;pointerEvents=1;dashed=0;fillColor=#036897;strokeColor=#ffffff;strokeWidth=2;verticalLabelPosition=bottom;verticalAlign=top;align=center;outlineConnect=0;fontSize=20;" vertex="1" parent="1">
          <mxGeometry x="457.5" y="100" width="54" height="56" as="geometry" />
        </mxCell>
        <mxCell id="jGhrvIS6w2s_NV2GUrLX-2317" value="" style="shape=mxgraph.cisco.switches.atm_switch;sketch=0;html=1;pointerEvents=1;dashed=0;fillColor=#036897;strokeColor=#ffffff;strokeWidth=2;verticalLabelPosition=bottom;verticalAlign=top;align=center;outlineConnect=0;fontSize=20;" vertex="1" parent="1">
          <mxGeometry x="356" y="394" width="54" height="56" as="geometry" />
        </mxCell>
        <mxCell id="jGhrvIS6w2s_NV2GUrLX-2325" style="edgeStyle=orthogonalEdgeStyle;rounded=0;orthogonalLoop=1;jettySize=auto;html=1;exitX=1;exitY=0.5;exitDx=0;exitDy=0;exitPerimeter=0;entryX=0;entryY=0.5;entryDx=0;entryDy=0;entryPerimeter=0;strokeWidth=3;fontSize=20;endArrow=none;endFill=0;" edge="1" parent="1" source="jGhrvIS6w2s_NV2GUrLX-2320" target="jGhrvIS6w2s_NV2GUrLX-2323">
          <mxGeometry relative="1" as="geometry" />
        </mxCell>
        <mxCell id="jGhrvIS6w2s_NV2GUrLX-2326" style="edgeStyle=orthogonalEdgeStyle;rounded=0;orthogonalLoop=1;jettySize=auto;html=1;exitX=1;exitY=0.5;exitDx=0;exitDy=0;exitPerimeter=0;entryX=0;entryY=0.5;entryDx=0;entryDy=0;entryPerimeter=0;strokeWidth=3;fontSize=20;endArrow=none;endFill=0;" edge="1" parent="1" source="jGhrvIS6w2s_NV2GUrLX-2320" target="jGhrvIS6w2s_NV2GUrLX-2333">
          <mxGeometry relative="1" as="geometry">
            <mxPoint x="960" y="331.5" as="targetPoint" />
          </mxGeometry>
        </mxCell>
        <mxCell id="jGhrvIS6w2s_NV2GUrLX-2320" value="" style="shape=mxgraph.cisco.routers.atm_router;sketch=0;html=1;pointerEvents=1;dashed=0;fillColor=#036897;strokeColor=#ffffff;strokeWidth=2;verticalLabelPosition=bottom;verticalAlign=top;align=center;outlineConnect=0;" vertex="1" parent="1">
          <mxGeometry x="820" y="240.5" width="78" height="53" as="geometry" />
        </mxCell>
        <mxCell id="jGhrvIS6w2s_NV2GUrLX-2323" value="" style="shape=mxgraph.cisco.switches.atm_switch;sketch=0;html=1;pointerEvents=1;dashed=0;fillColor=#036897;strokeColor=#ffffff;strokeWidth=2;verticalLabelPosition=bottom;verticalAlign=top;align=center;outlineConnect=0;fontSize=20;" vertex="1" parent="1">
          <mxGeometry x="960" y="146.5" width="54" height="56" as="geometry" />
        </mxCell>
        <mxCell id="jGhrvIS6w2s_NV2GUrLX-2327" value="" style="shape=mxgraph.cisco.switches.mgx_8000_multiservice_switch;sketch=0;html=1;pointerEvents=1;dashed=0;fillColor=#036897;strokeColor=#ffffff;strokeWidth=2;verticalLabelPosition=bottom;verticalAlign=top;align=center;outlineConnect=0;fontSize=20;" vertex="1" parent="1">
          <mxGeometry x="534" y="228" width="78" height="78" as="geometry" />
        </mxCell>
        <mxCell id="jGhrvIS6w2s_NV2GUrLX-2328" value="" style="shape=mxgraph.cisco.switches.mgx_8000_multiservice_switch;sketch=0;html=1;pointerEvents=1;dashed=0;fillColor=#036897;strokeColor=#ffffff;strokeWidth=2;verticalLabelPosition=bottom;verticalAlign=top;align=center;outlineConnect=0;fontSize=20;" vertex="1" parent="1">
          <mxGeometry x="662" y="225.5" width="78" height="78" as="geometry" />
        </mxCell>
        <mxCell id="jGhrvIS6w2s_NV2GUrLX-2329" value="......" style="text;html=1;strokeColor=none;fillColor=none;align=center;verticalAlign=middle;whiteSpace=wrap;rounded=0;fontSize=20;fontColor=#FFFFFF;" vertex="1" parent="1">
          <mxGeometry x="608" y="252" width="60" height="30" as="geometry" />
        </mxCell>
        <mxCell id="jGhrvIS6w2s_NV2GUrLX-2331" value="" style="points=[];aspect=fixed;html=1;align=center;shadow=0;dashed=0;image;image=img/lib/allied_telesis/computer_and_terminals/Personal_Computer_with_Server.svg;strokeColor=#000000;fontSize=20;fontColor=#FFFFFF;" vertex="1" parent="1">
          <mxGeometry x="1046.6599999999999" y="109.35" width="62.400000000000006" height="62.400000000000006" as="geometry" />
        </mxCell>
        <mxCell id="jGhrvIS6w2s_NV2GUrLX-2332" value="" style="points=[];aspect=fixed;html=1;align=center;shadow=0;dashed=0;image;image=img/lib/allied_telesis/computer_and_terminals/Laptop.svg;strokeColor=#000000;fontSize=20;fontColor=#FFFFFF;" vertex="1" parent="1">
          <mxGeometry x="1050" y="271" width="55.71" height="56.5" as="geometry" />
        </mxCell>
        <mxCell id="jGhrvIS6w2s_NV2GUrLX-2333" value="" style="shape=mxgraph.cisco.wireless.wireless_transport;sketch=0;html=1;pointerEvents=1;dashed=0;fillColor=#036897;strokeColor=#ffffff;strokeWidth=2;verticalLabelPosition=bottom;verticalAlign=top;align=center;outlineConnect=0;fontSize=20;fontColor=#FFFFFF;" vertex="1" parent="1">
          <mxGeometry x="960" y="320" width="60" height="40" as="geometry" />
        </mxCell>
        <mxCell id="jGhrvIS6w2s_NV2GUrLX-2334" value="" style="points=[];aspect=fixed;html=1;align=center;shadow=0;dashed=0;image;image=img/lib/allied_telesis/computer_and_terminals/Laptop.svg;strokeColor=#000000;fontSize=20;fontColor=#FFFFFF;" vertex="1" parent="1">
          <mxGeometry x="1050" y="333.5" width="55.71" height="56.5" as="geometry" />
        </mxCell>
        <mxCell id="jGhrvIS6w2s_NV2GUrLX-2335" value="" style="points=[];aspect=fixed;html=1;align=center;shadow=0;dashed=0;image;image=img/lib/allied_telesis/computer_and_terminals/Personal_Computer_with_Server.svg;strokeColor=#000000;fontSize=20;fontColor=#FFFFFF;" vertex="1" parent="1">
          <mxGeometry x="1046.6599999999999" y="177.25" width="62.400000000000006" height="62.400000000000006" as="geometry" />
        </mxCell>
        <mxCell id="jGhrvIS6w2s_NV2GUrLX-2339" value="计算中心/云平台" style="text;html=1;align=center;verticalAlign=middle;resizable=0;points=[];autosize=1;strokeColor=none;fillColor=none;fontSize=12;fontColor=#000000;" vertex="1" parent="1">
          <mxGeometry x="706.5" y="462" width="110" height="30" as="geometry" />
        </mxCell>
        <mxCell id="jGhrvIS6w2s_NV2GUrLX-2340" value="核心传输网络" style="text;html=1;strokeColor=none;fillColor=none;align=center;verticalAlign=middle;whiteSpace=wrap;rounded=0;fontSize=11;fontColor=#000000;" vertex="1" parent="1">
          <mxGeometry x="590" y="156" width="80" height="30" as="geometry" />
        </mxCell>
        <mxCell id="jGhrvIS6w2s_NV2GUrLX-2341" value="计算资源集群" style="text;html=1;align=center;verticalAlign=middle;resizable=0;points=[];autosize=1;strokeColor=none;fillColor=none;fontSize=12;fontColor=#000000;" vertex="1" parent="1">
          <mxGeometry x="705" y="600" width="100" height="30" as="geometry" />
        </mxCell>
        <mxCell id="jGhrvIS6w2s_NV2GUrLX-2345" value="信息化管理监控室" style="text;html=1;align=center;verticalAlign=middle;resizable=0;points=[];autosize=1;strokeColor=none;fillColor=none;fontSize=12;fontColor=#000000;" vertex="1" parent="1">
          <mxGeometry x="985" y="75" width="120" height="30" as="geometry" />
        </mxCell>
        <mxCell id="jGhrvIS6w2s_NV2GUrLX-2346" value="&lt;b style=&quot;font-size: 20px;&quot;&gt;……&lt;/b&gt;" style="text;html=1;strokeColor=none;fillColor=none;align=center;verticalAlign=middle;whiteSpace=wrap;rounded=0;rotation=90;fontSize=20;" vertex="1" parent="1">
          <mxGeometry x="960" y="249.5" width="60" height="30" as="geometry" />
        </mxCell>
      </root>
    </mxGraphModel>
  </diagram>
</mxfile>
